<svg width="24" height="27" viewBox="0 0 24 27" fill="none" xmlns="http://www.w3.org/2000/svg">
<path d="M6.66699 7.66667V6.33333C6.66699 4.91885 7.2289 3.56229 8.22909 2.5621C9.22928 1.5619 10.5858 1 12.0003 1C13.4148 1 14.7714 1.5619 15.7716 2.5621C16.7718 3.56229 17.3337 4.91885 17.3337 6.33333V7.66667" stroke="white" stroke-width="2" stroke-linecap="round"/>
<path fill-rule="evenodd" clip-rule="evenodd" d="M0.781333 7.11459C-7.94729e-08 7.89592 0 9.15192 0 11.6666V15.6666C0 20.6946 -1.58946e-07 23.2093 1.56267 24.7706C3.12533 26.3319 5.63867 26.3333 10.6667 26.3333H13.3333C18.3613 26.3333 20.876 26.3333 22.4373 24.7706C23.9987 23.2079 24 20.6946 24 15.6666V11.6666C24 9.15192 24 7.89592 23.2187 7.11459C22.4373 6.33325 21.1813 6.33325 18.6667 6.33325H5.33333C2.81867 6.33325 1.56267 6.33325 0.781333 7.11459ZM9.33333 12.9999C9.33333 12.6463 9.19286 12.3072 8.94281 12.0571C8.69276 11.8071 8.35362 11.6666 8 11.6666C7.64638 11.6666 7.30724 11.8071 7.05719 12.0571C6.80714 12.3072 6.66667 12.6463 6.66667 12.9999V15.6666C6.66667 16.0202 6.80714 16.3593 7.05719 16.6094C7.30724 16.8594 7.64638 16.9999 8 16.9999C8.35362 16.9999 8.69276 16.8594 8.94281 16.6094C9.19286 16.3593 9.33333 16.0202 9.33333 15.6666V12.9999ZM17.3333 12.9999C17.3333 12.6463 17.1929 12.3072 16.9428 12.0571C16.6928 11.8071 16.3536 11.6666 16 11.6666C15.6464 11.6666 15.3072 11.8071 15.0572 12.0571C14.8071 12.3072 14.6667 12.6463 14.6667 12.9999V15.6666C14.6667 16.0202 14.8071 16.3593 15.0572 16.6094C15.3072 16.8594 15.6464 16.9999 16 16.9999C16.3536 16.9999 16.6928 16.8594 16.9428 16.6094C17.1929 16.3593 17.3333 16.0202 17.3333 15.6666V12.9999Z" fill="white"/>
</svg>
