<svg width="21" height="21" viewBox="0 0 21 21" fill="none" xmlns="http://www.w3.org/2000/svg">
<path d="M6.6712 10.0514C6.6712 8.20885 8.16402 6.71481 10.006 6.71481C11.848 6.71481 13.3416 8.20885 13.3416 10.0514C13.3416 11.8939 11.848 13.3879 10.006 13.3879C8.16402 13.3879 6.6712 11.8939 6.6712 10.0514ZM4.86804 10.0514C4.86804 12.8899 7.1683 15.1908 10.006 15.1908C12.8437 15.1908 15.144 12.8899 15.144 10.0514C15.144 7.21285 12.8437 4.91193 10.006 4.91193C7.1683 4.91193 4.86804 7.21285 4.86804 10.0514ZM14.1466 4.70814C14.1465 4.94569 14.2169 5.17793 14.3487 5.3755C14.4806 5.57307 14.6681 5.72709 14.8874 5.81808C15.1068 5.90908 15.3482 5.93296 15.5811 5.88671C15.8141 5.84046 16.0281 5.72615 16.1961 5.55825C16.3641 5.39034 16.4785 5.17638 16.5249 4.94341C16.5713 4.71045 16.5477 4.46894 16.4569 4.24944C16.3661 4.02994 16.2123 3.84229 16.0148 3.71024C15.8174 3.57819 15.5853 3.50765 15.3478 3.50756H15.3474C15.029 3.50771 14.7238 3.63423 14.4987 3.85934C14.2735 4.08444 14.1469 4.38973 14.1466 4.70814ZM5.96358 18.1984C4.98803 18.1539 4.45779 17.9914 4.10542 17.8541C3.63826 17.6721 3.30494 17.4555 2.95449 17.1054C2.60404 16.7553 2.38711 16.4222 2.20604 15.9549C2.06868 15.6026 1.90618 15.0721 1.86184 14.0962C1.81333 13.0412 1.80364 12.7243 1.80364 10.0514C1.80364 7.3786 1.81413 7.06255 1.86184 6.00666C1.90626 5.03083 2.06996 4.50132 2.20604 4.14797C2.38791 3.68067 2.60452 3.34726 2.95449 2.9967C3.30446 2.64615 3.63746 2.42916 4.10542 2.24804C4.45763 2.11064 4.98803 1.94809 5.96358 1.90373C7.01829 1.85521 7.33512 1.84552 10.006 1.84552C12.6769 1.84552 12.994 1.85601 14.0496 1.90373C15.0252 1.94817 15.5545 2.11192 15.9078 2.24804C16.3749 2.42916 16.7083 2.64663 17.0587 2.9967C17.4092 3.34678 17.6253 3.68067 17.8072 4.14797C17.9445 4.50028 18.107 5.03083 18.1514 6.00666C18.1999 7.06255 18.2096 7.3786 18.2096 10.0514C18.2096 12.7243 18.1999 13.0403 18.1514 14.0962C18.1069 15.0721 17.9436 15.6025 17.8072 15.9549C17.6253 16.4222 17.4087 16.7556 17.0587 17.1054C16.7087 17.4551 16.3749 17.6721 15.9078 17.8541C15.5556 17.9915 15.0252 18.154 14.0496 18.1984C12.9949 18.2469 12.6781 18.2566 10.006 18.2566C7.33392 18.2566 7.01797 18.2469 5.96358 18.1984ZM5.88073 0.103094C4.81553 0.151617 4.08765 0.320567 3.45199 0.567987C2.79368 0.823494 2.23638 1.16628 1.67949 1.72245C1.12259 2.27863 0.780788 2.83696 0.525355 3.49547C0.278007 4.13171 0.109105 4.8594 0.0605963 5.9249C0.0112868 6.99209 0 7.33328 0 10.0514C0 12.7695 0.0112868 13.1106 0.0605963 14.1778C0.109105 15.2434 0.278007 15.971 0.525355 16.6073C0.780788 17.2654 1.12267 17.8244 1.67949 18.3803C2.2363 18.9362 2.79368 19.2785 3.45199 19.5348C4.08885 19.7822 4.81553 19.9511 5.88073 19.9996C6.94817 20.0482 7.28869 20.0603 10.006 20.0603C12.7233 20.0603 13.0644 20.049 14.1313 19.9996C15.1966 19.9511 15.9239 19.7822 16.56 19.5348C17.2179 19.2785 17.7756 18.9365 18.3325 18.3803C18.8894 17.8241 19.2305 17.2654 19.4866 16.6073C19.734 15.971 19.9037 15.2433 19.9514 14.1778C19.9999 13.1098 20.0112 12.7695 20.0112 10.0514C20.0112 7.33328 19.9999 6.99209 19.9514 5.9249C19.9029 4.85932 19.734 4.13131 19.4866 3.49547C19.2305 2.83736 18.8885 2.27951 18.3325 1.72245C17.7765 1.1654 17.2179 0.823494 16.5608 0.567987C15.924 0.320567 15.1965 0.150817 14.1321 0.103094C13.0652 0.0545712 12.7241 0.0424805 10.0068 0.0424805C7.28949 0.0424805 6.94817 0.0537705 5.88073 0.103094Z" fill="white"/>
</svg>
