<svg width="18" height="17" viewBox="0 0 18 17" fill="none" xmlns="http://www.w3.org/2000/svg">
<path d="M4.3989 16.1052V5.3H0.810626V16.1052H4.39928H4.3989ZM2.60551 3.825C3.85656 3.825 4.63542 2.99529 4.63542 1.95839C4.612 0.89786 3.85656 0.0913086 2.62931 0.0913086C1.40121 0.0913086 0.599121 0.89786 0.599121 1.95829C0.599121 2.99519 1.3777 3.8249 2.582 3.8249H2.60523L2.60551 3.825ZM6.38506 16.1052H9.97306V10.0717C9.97306 9.74921 9.99648 9.42586 10.0913 9.19551C10.3505 8.55002 10.9409 7.88185 11.9324 7.88185C13.2305 7.88185 13.7501 8.87263 13.7501 10.3253V16.1052H17.338V9.90981C17.338 6.59107 15.568 5.04668 13.2073 5.04668C11.2718 5.04668 10.4217 6.12943 9.94946 6.86689H9.97334V5.30038H6.38525C6.43209 6.31403 6.38497 16.1055 6.38497 16.1055L6.38506 16.1052Z" fill="white"/>
</svg>
